<svg width="147" height="25" viewBox="0 0 147 25" fill="none" xmlns="http://www.w3.org/2000/svg">
<path d="M15.0752 6.74414C15.0752 7.79362 15.0399 8.88851 14.9692 10.0288C14.8986 11.159 14.7624 12.3245 14.5605 13.5254H10.8975C10.9883 13.1823 11.0741 12.8089 11.1548 12.4053C11.2153 12.0622 11.2708 11.6636 11.3213 11.2095C11.3818 10.7453 11.4121 10.2559 11.4121 9.74121C10.5241 9.76139 9.78743 9.84717 9.20215 9.99854C8.62695 10.1398 8.14762 10.3114 7.76416 10.5132C7.3807 10.7049 7.06787 10.9017 6.82568 11.1035C6.5835 11.3053 6.36654 11.4668 6.1748 11.5879V24H2.2998V11.4971C2.25944 11.1742 2.16357 10.9017 2.01221 10.6797C1.87093 10.4577 1.71956 10.276 1.55811 10.1348C1.37646 9.96322 1.1696 9.82194 0.9375 9.71094L2.54199 6.74414C2.91536 6.87533 3.28369 7.05192 3.64697 7.27393C3.9598 7.46566 4.28776 7.71289 4.63086 8.01562C4.98405 8.30827 5.29688 8.67155 5.56934 9.10547C6.08398 8.75228 6.55827 8.45459 6.99219 8.2124C7.42611 7.96012 7.84489 7.74821 8.24854 7.57666C8.66227 7.40511 9.0861 7.27393 9.52002 7.18311C9.96403 7.08219 10.4484 7.00146 10.9731 6.94092C11.508 6.88037 12.1034 6.84001 12.7593 6.81982C13.4253 6.78955 14.1973 6.76432 15.0752 6.74414ZM36.0547 17.8242C35.8024 17.6022 35.4896 17.3853 35.1162 17.1733C34.7428 16.9614 34.2837 16.7747 33.7388 16.6133C33.1938 16.4417 32.543 16.3055 31.7861 16.2046C31.0394 16.0936 30.1615 16.0381 29.1523 16.0381C28.2542 16.0381 27.4015 16.0583 26.5942 16.0986C25.797 16.1289 25.0957 16.2298 24.4902 16.4014C23.8848 16.5628 23.4054 16.8252 23.0522 17.1885C22.6991 17.5518 22.5225 18.0563 22.5225 18.7021V20.6396C23.4105 20.7809 24.3893 20.897 25.459 20.9878C26.5286 21.0786 27.7194 21.124 29.0312 21.124C30.0807 21.124 31.1958 21.0887 32.3765 21.0181C33.5672 20.9373 34.7933 20.7809 36.0547 20.5488V17.8242ZM29.2432 6.74414C29.7477 6.74414 30.3582 6.76937 31.0747 6.81982C31.7912 6.87028 32.5379 6.9611 33.3149 7.09229C34.092 7.21338 34.8589 7.38493 35.6157 7.60693C36.3826 7.81885 37.0688 8.1014 37.6743 8.45459C38.2899 8.79769 38.7843 9.21143 39.1577 9.6958C39.5311 10.1802 39.7178 10.7503 39.7178 11.4062V23.1221C38.8701 23.2936 37.9115 23.4399 36.8418 23.561C35.9235 23.672 34.8286 23.7729 33.5571 23.8638C32.2856 23.9546 30.8678 24 29.3037 24C27.7497 24 26.0947 23.9344 24.3389 23.8032C22.5931 23.672 20.7666 23.445 18.8594 23.1221V17.6729C18.8594 17.0876 18.9956 16.578 19.2681 16.144C19.5506 15.7 19.9341 15.3216 20.4185 15.0088C20.9028 14.696 21.473 14.4386 22.1289 14.2368C22.7848 14.035 23.4912 13.8735 24.248 13.7524C25.0049 13.6313 25.792 13.5506 26.6094 13.5103C27.4268 13.4598 28.2441 13.4346 29.0615 13.4346C30.3027 13.4346 31.3573 13.5153 32.2251 13.6768C33.103 13.8281 33.8296 13.9946 34.4048 14.1763C35.0708 14.3983 35.6208 14.6455 36.0547 14.918V12.4658C36.0547 12.0521 35.9538 11.6989 35.752 11.4062C35.5501 11.1035 35.2777 10.8512 34.9346 10.6494C34.5915 10.4375 34.1979 10.271 33.7539 10.1499C33.3099 10.0187 32.8457 9.91781 32.3613 9.84717C31.877 9.77653 31.3825 9.73112 30.8779 9.71094C30.3835 9.69076 29.9193 9.68066 29.4854 9.68066C29.0312 9.68066 28.5469 9.6958 28.0322 9.72607C27.5176 9.74626 27.0029 9.79167 26.4883 9.8623C25.9837 9.93294 25.4943 10.0339 25.02 10.165C24.5558 10.2861 24.1421 10.4526 23.7788 10.6646C23.4155 10.8765 23.1229 11.1338 22.9009 11.4365C22.689 11.7292 22.583 12.0824 22.583 12.4961L18.8291 11.5273C18.8291 10.8512 18.9956 10.266 19.3286 9.77148C19.6616 9.26693 20.1006 8.83805 20.6455 8.48486C21.2005 8.13167 21.8363 7.84408 22.5527 7.62207C23.2692 7.38997 24.0109 7.21338 24.7778 7.09229C25.5549 6.9611 26.3268 6.87028 27.0938 6.81982C27.8607 6.76937 28.5771 6.74414 29.2432 6.74414ZM49.4355 6.53223H53.2803V9.0752H49.4355V24H45.833V9.0752H42.9873V6.53223H45.833V1.26465H49.4355V6.53223ZM67.2363 6.74414C67.751 6.74414 68.3716 6.76937 69.0981 6.81982C69.8247 6.87028 70.5765 6.9611 71.3535 7.09229C72.1406 7.21338 72.9176 7.38997 73.6846 7.62207C74.4515 7.84408 75.1377 8.13167 75.7432 8.48486C76.3587 8.83805 76.8532 9.26693 77.2266 9.77148C77.61 10.266 77.8018 10.8512 77.8018 11.5273V16.6436H60.4551V20.5186C61.6761 20.6901 62.8517 20.8112 63.9819 20.8818C65.1121 20.9424 66.1969 20.9727 67.2363 20.9727C68.8206 20.9727 70.2536 20.9121 71.5352 20.791C72.8268 20.6699 73.9419 20.5337 74.8804 20.3823C75.9601 20.2108 76.9339 20.014 77.8018 19.792V23.1523C75.8844 23.4551 74.0327 23.672 72.2466 23.8032C70.4705 23.9344 68.8005 24 67.2363 24C65.6621 24 64.2342 23.9596 62.9526 23.8789C61.6711 23.7881 60.5711 23.6872 59.6528 23.5762C58.5832 23.4551 57.6195 23.3138 56.7617 23.1523V11.5273C56.7617 10.8512 56.9282 10.266 57.2612 9.77148C57.5942 9.26693 58.0382 8.83805 58.5933 8.48486C59.1483 8.13167 59.784 7.84408 60.5005 7.62207C61.2271 7.38997 61.9788 7.21338 62.7559 7.09229C63.5329 6.9611 64.3049 6.87028 65.0718 6.81982C65.8488 6.76937 66.5703 6.74414 67.2363 6.74414ZM60.4551 14.2217H74.0479V12.4658C74.0479 12.0521 73.9469 11.6989 73.7451 11.4062C73.5433 11.1035 73.2708 10.8512 72.9277 10.6494C72.5947 10.4476 72.2012 10.2861 71.7471 10.165C71.3031 10.0339 70.8389 9.93799 70.3545 9.87744C69.8701 9.8068 69.3807 9.76139 68.8862 9.74121C68.4019 9.72103 67.9427 9.71094 67.5088 9.71094C67.0547 9.71094 66.5653 9.72103 66.0405 9.74121C65.5259 9.76139 65.0062 9.8068 64.4814 9.87744C63.9567 9.94808 63.4521 10.049 62.9678 10.1802C62.4834 10.3013 62.0545 10.4678 61.6812 10.6797C61.3078 10.8815 61.0101 11.1338 60.7881 11.4365C60.5661 11.7292 60.4551 12.0824 60.4551 12.4961V14.2217ZM92.4238 0.538086C93.9476 0.538086 95.3906 0.674316 96.7529 0.946777C98.1152 1.20915 99.3009 1.58252 100.31 2.06689C101.329 2.55127 102.137 3.13151 102.732 3.80762C103.327 4.47363 103.625 5.21029 103.625 6.01758V8.68164H99.6289V7.19824C99.6289 6.76432 99.4624 6.35059 99.1294 5.95703C98.7964 5.55339 98.3171 5.20524 97.6914 4.9126C97.0758 4.60986 96.3241 4.37272 95.436 4.20117C94.548 4.01953 93.5439 3.92871 92.4238 3.92871C91.3441 3.92871 90.3602 4.01449 89.4722 4.18604C88.5841 4.34749 87.8223 4.57454 87.1865 4.86719C86.5508 5.15983 86.0563 5.50798 85.7031 5.91162C85.36 6.30518 85.1885 6.73405 85.1885 7.19824V17.8848C85.1885 18.3288 85.36 18.7476 85.7031 19.1411C86.0563 19.5347 86.5508 19.8778 87.1865 20.1704C87.8223 20.453 88.5841 20.68 89.4722 20.8516C90.3602 21.013 91.3441 21.0938 92.4238 21.0938C93.5439 21.0938 94.548 21.008 95.436 20.8364C96.3241 20.6548 97.0758 20.4176 97.6914 20.125C98.3171 19.8324 98.7964 19.4943 99.1294 19.1108C99.4624 18.7173 99.6289 18.3086 99.6289 17.8848V16.3711H103.625V19.0352C103.625 19.57 103.489 20.0796 103.216 20.564C102.944 21.0382 102.56 21.4772 102.066 21.8809C101.582 22.2845 100.996 22.6478 100.31 22.9707C99.634 23.2835 98.8771 23.556 98.0396 23.7881C97.2121 24.0101 96.3241 24.1816 95.3755 24.3027C94.4269 24.4238 93.443 24.4844 92.4238 24.4844C91.4046 24.4844 90.4207 24.4238 89.4722 24.3027C88.5236 24.1816 87.6305 24.0101 86.793 23.7881C85.9655 23.556 85.2087 23.2835 84.5225 22.9707C83.8464 22.6478 83.2611 22.2845 82.7666 21.8809C82.2822 21.4772 81.9038 21.0382 81.6313 20.564C81.3589 20.0796 81.2227 19.57 81.2227 19.0352V6.01758C81.2227 5.48275 81.3589 4.97314 81.6313 4.48877C81.9038 4.00439 82.2822 3.56038 82.7666 3.15674C83.2611 2.75309 83.8464 2.38981 84.5225 2.06689C85.2087 1.74398 85.9655 1.47152 86.793 1.24951C87.6305 1.01742 88.5236 0.84082 89.4722 0.719727C90.4207 0.598633 91.4046 0.538086 92.4238 0.538086ZM124.695 17.8242C124.443 17.6022 124.13 17.3853 123.757 17.1733C123.383 16.9614 122.924 16.7747 122.379 16.6133C121.834 16.4417 121.184 16.3055 120.427 16.2046C119.68 16.0936 118.802 16.0381 117.793 16.0381C116.895 16.0381 116.042 16.0583 115.235 16.0986C114.438 16.1289 113.736 16.2298 113.131 16.4014C112.525 16.5628 112.046 16.8252 111.693 17.1885C111.34 17.5518 111.163 18.0563 111.163 18.7021V20.6396C112.051 20.7809 113.03 20.897 114.1 20.9878C115.169 21.0786 116.36 21.124 117.672 21.124C118.721 21.124 119.836 21.0887 121.017 21.0181C122.208 20.9373 123.434 20.7809 124.695 20.5488V17.8242ZM117.884 6.74414C118.388 6.74414 118.999 6.76937 119.715 6.81982C120.432 6.87028 121.179 6.9611 121.956 7.09229C122.733 7.21338 123.5 7.38493 124.256 7.60693C125.023 7.81885 125.709 8.1014 126.315 8.45459C126.931 8.79769 127.425 9.21143 127.798 9.6958C128.172 10.1802 128.358 10.7503 128.358 11.4062V23.1221C127.511 23.2936 126.552 23.4399 125.482 23.561C124.564 23.672 123.469 23.7729 122.198 23.8638C120.926 23.9546 119.508 24 117.944 24C116.39 24 114.735 23.9344 112.979 23.8032C111.234 23.672 109.407 23.445 107.5 23.1221V17.6729C107.5 17.0876 107.636 16.578 107.909 16.144C108.191 15.7 108.575 15.3216 109.059 15.0088C109.543 14.696 110.114 14.4386 110.77 14.2368C111.425 14.035 112.132 13.8735 112.889 13.7524C113.646 13.6313 114.433 13.5506 115.25 13.5103C116.067 13.4598 116.885 13.4346 117.702 13.4346C118.943 13.4346 119.998 13.5153 120.866 13.6768C121.744 13.8281 122.47 13.9946 123.045 14.1763C123.711 14.3983 124.261 14.6455 124.695 14.918V12.4658C124.695 12.0521 124.594 11.6989 124.393 11.4062C124.191 11.1035 123.918 10.8512 123.575 10.6494C123.232 10.4375 122.839 10.271 122.395 10.1499C121.951 10.0187 121.486 9.91781 121.002 9.84717C120.518 9.77653 120.023 9.73112 119.519 9.71094C119.024 9.69076 118.56 9.68066 118.126 9.68066C117.672 9.68066 117.188 9.6958 116.673 9.72607C116.158 9.74626 115.644 9.79167 115.129 9.8623C114.624 9.93294 114.135 10.0339 113.661 10.165C113.196 10.2861 112.783 10.4526 112.419 10.6646C112.056 10.8765 111.764 11.1338 111.542 11.4365C111.33 11.7292 111.224 12.0824 111.224 12.4961L107.47 11.5273C107.47 10.8512 107.636 10.266 107.969 9.77148C108.302 9.26693 108.741 8.83805 109.286 8.48486C109.841 8.13167 110.477 7.84408 111.193 7.62207C111.91 7.38997 112.652 7.21338 113.418 7.09229C114.195 6.9611 114.967 6.87028 115.734 6.81982C116.501 6.76937 117.218 6.74414 117.884 6.74414ZM146.553 6.74414C146.553 7.79362 146.517 8.88851 146.447 10.0288C146.376 11.159 146.24 12.3245 146.038 13.5254H142.375C142.466 13.1823 142.552 12.8089 142.632 12.4053C142.693 12.0622 142.748 11.6636 142.799 11.2095C142.859 10.7453 142.89 10.2559 142.89 9.74121C142.002 9.76139 141.265 9.84717 140.68 9.99854C140.104 10.1398 139.625 10.3114 139.242 10.5132C138.858 10.7049 138.545 10.9017 138.303 11.1035C138.061 11.3053 137.844 11.4668 137.652 11.5879V24H133.777V11.4971C133.737 11.1742 133.641 10.9017 133.49 10.6797C133.348 10.4577 133.197 10.276 133.036 10.1348C132.854 9.96322 132.647 9.82194 132.415 9.71094L134.02 6.74414C134.393 6.87533 134.761 7.05192 135.125 7.27393C135.437 7.46566 135.765 7.71289 136.108 8.01562C136.462 8.30827 136.774 8.67155 137.047 9.10547C137.562 8.75228 138.036 8.45459 138.47 8.2124C138.904 7.96012 139.322 7.74821 139.726 7.57666C140.14 7.40511 140.564 7.27393 140.998 7.18311C141.442 7.08219 141.926 7.00146 142.451 6.94092C142.986 6.88037 143.581 6.84001 144.237 6.81982C144.903 6.78955 145.675 6.76432 146.553 6.74414Z" fill="white"/>
</svg>
